<svg width="28" height="28" viewBox="0 0 28 28" fill="none" xmlns="http://www.w3.org/2000/svg">
<g id="arrow-down-left">
<path id="Vector" fill-rule="evenodd" clip-rule="evenodd" d="M3.5 23.6249C3.5 23.8569 3.59219 24.0795 3.75628 24.2436C3.92038 24.4077 4.14294 24.4999 4.375 24.4999H14.875C15.1071 24.4999 15.3296 24.4077 15.4937 24.2436C15.6578 24.0795 15.75 23.8569 15.75 23.6249C15.75 23.3928 15.6578 23.1703 15.4937 23.0062C15.3296 22.8421 15.1071 22.7499 14.875 22.7499H6.48725L24.2445 4.99438C24.4088 4.83008 24.5011 4.60724 24.5011 4.37488C24.5011 4.14253 24.4088 3.91969 24.2445 3.75538C24.0802 3.59108 23.8574 3.49878 23.625 3.49878C23.3926 3.49878 23.1698 3.59108 23.0055 3.75538L5.25 21.5126V13.1249C5.25 12.8928 5.15781 12.6703 4.99372 12.5062C4.82962 12.3421 4.60706 12.2499 4.375 12.2499C4.14294 12.2499 3.92038 12.3421 3.75628 12.5062C3.59219 12.6703 3.5 12.8928 3.5 13.1249V23.6249Z" fill="#1B1B1B"/>
</g>
</svg>
