<svg width="28" height="28" viewBox="0 0 28 28" fill="none" xmlns="http://www.w3.org/2000/svg">
<g id="arrow-left-short">
<path id="Vector" fill-rule="evenodd" clip-rule="evenodd" d="M21 13.9999C21 14.2319 20.9078 14.4545 20.7437 14.6186C20.5796 14.7827 20.357 14.8749 20.125 14.8749H9.98723L13.7445 18.6304C13.8258 18.7117 13.8904 18.8083 13.9344 18.9146C13.9784 19.0209 14.0011 19.1348 14.0011 19.2499C14.0011 19.3649 13.9784 19.4789 13.9344 19.5852C13.8904 19.6915 13.8258 19.788 13.7445 19.8694C13.6631 19.9507 13.5665 20.0153 13.4602 20.0593C13.354 20.1033 13.24 20.126 13.125 20.126C13.0099 20.126 12.896 20.1033 12.7897 20.0593C12.6834 20.0153 12.5868 19.9507 12.5055 19.8694L7.25548 14.6194C7.17399 14.5381 7.10934 14.4415 7.06523 14.3352C7.02112 14.2289 6.99841 14.115 6.99841 13.9999C6.99841 13.8848 7.02112 13.7708 7.06523 13.6645C7.10934 13.5582 7.17399 13.4617 7.25548 13.3804L12.5055 8.13038C12.6698 7.96608 12.8926 7.87378 13.125 7.87378C13.3573 7.87378 13.5802 7.96608 13.7445 8.13038C13.9088 8.29469 14.0011 8.51753 14.0011 8.74988C14.0011 8.98224 13.9088 9.20508 13.7445 9.36939L9.98723 13.1249H20.125C20.357 13.1249 20.5796 13.2171 20.7437 13.3812C20.9078 13.5453 21 13.7678 21 13.9999Z" fill="#1B1B1B"/>
</g>
</svg>
