<svg width="28" height="28" viewBox="0 0 28 28" fill="none" xmlns="http://www.w3.org/2000/svg">
<g id="arrow-right-short">
<path id="Vector" fill-rule="evenodd" clip-rule="evenodd" d="M7 13.9999C7 13.7678 7.09219 13.5453 7.25628 13.3812C7.42038 13.2171 7.64294 13.1249 7.875 13.1249H18.0128L14.2555 9.36939C14.0912 9.20508 13.9989 8.98224 13.9989 8.74988C13.9989 8.51753 14.0912 8.29469 14.2555 8.13038C14.4198 7.96608 14.6426 7.87378 14.875 7.87378C15.1074 7.87378 15.3302 7.96608 15.4945 8.13038L20.7445 13.3804C20.826 13.4617 20.8906 13.5582 20.9347 13.6645C20.9789 13.7708 21.0016 13.8848 21.0016 13.9999C21.0016 14.115 20.9789 14.2289 20.9347 14.3352C20.8906 14.4415 20.826 14.5381 20.7445 14.6194L15.4945 19.8694C15.3302 20.0337 15.1074 20.126 14.875 20.126C14.6426 20.126 14.4198 20.0337 14.2555 19.8694C14.0912 19.7051 13.9989 19.4822 13.9989 19.2499C13.9989 19.0175 14.0912 18.7947 14.2555 18.6304L18.0128 14.8749H7.875C7.64294 14.8749 7.42038 14.7827 7.25628 14.6186C7.09219 14.4545 7 14.2319 7 13.9999Z" fill="#1B1B1B"/>
</g>
</svg>
