<svg width="28" height="28" viewBox="0 0 28 28" fill="none" xmlns="http://www.w3.org/2000/svg">
<g id="arrow-up">
<path id="Vector" fill-rule="evenodd" clip-rule="evenodd" d="M14 26.2501C14.2321 26.2501 14.4546 26.1579 14.6187 25.9938C14.7828 25.8297 14.875 25.6072 14.875 25.3751V4.73735L20.3805 10.2446C20.5448 10.4089 20.7676 10.5012 21 10.5012C21.2324 10.5012 21.4552 10.4089 21.6195 10.2446C21.7838 10.0803 21.8761 9.85746 21.8761 9.6251C21.8761 9.39274 21.7838 9.1699 21.6195 9.0056L14.6195 2.0056C14.5382 1.92411 14.4417 1.85946 14.3354 1.81535C14.2291 1.77124 14.1151 1.74854 14 1.74854C13.8849 1.74854 13.771 1.77124 13.6646 1.81535C13.5583 1.85946 13.4618 1.92411 13.3805 2.0056L6.38051 9.0056C6.29915 9.08695 6.23462 9.18353 6.19059 9.28983C6.14656 9.39612 6.1239 9.51005 6.1239 9.6251C6.1239 9.85746 6.2162 10.0803 6.38051 10.2446C6.54481 10.4089 6.76765 10.5012 7.00001 10.5012C7.23236 10.5012 7.45521 10.4089 7.61951 10.2446L13.125 4.73735V25.3751C13.125 25.6072 13.2172 25.8297 13.3813 25.9938C13.5454 26.1579 13.7679 26.2501 14 26.2501Z" fill="#1B1B1B"/>
</g>
</svg>
