<svg width="28" height="28" viewBox="0 0 28 28" fill="none" xmlns="http://www.w3.org/2000/svg">
<g id="arrow-down-right">
<path id="Vector" fill-rule="evenodd" clip-rule="evenodd" d="M24.5 23.6249C24.5 23.8569 24.4078 24.0795 24.2437 24.2436C24.0796 24.4077 23.8571 24.4999 23.625 24.4999H13.125C12.8929 24.4999 12.6704 24.4077 12.5063 24.2436C12.3422 24.0795 12.25 23.8569 12.25 23.6249C12.25 23.3928 12.3422 23.1703 12.5063 23.0062C12.6704 22.8421 12.8929 22.7499 13.125 22.7499H21.5128L3.75551 4.99438C3.67415 4.91303 3.60962 4.81645 3.56559 4.71016C3.52156 4.60386 3.4989 4.48994 3.4989 4.37488C3.4989 4.25983 3.52156 4.14591 3.56559 4.03961C3.60962 3.93332 3.67415 3.83674 3.75551 3.75538C3.83686 3.67403 3.93344 3.6095 4.03974 3.56547C4.14603 3.52144 4.25995 3.49878 4.37501 3.49878C4.49006 3.49878 4.60398 3.52144 4.71028 3.56547C4.81657 3.6095 4.91315 3.67403 4.99451 3.75538L22.75 21.5126V13.1249C22.75 12.8928 22.8422 12.6703 23.0063 12.5062C23.1704 12.3421 23.3929 12.2499 23.625 12.2499C23.8571 12.2499 24.0796 12.3421 24.2437 12.5062C24.4078 12.6703 24.5 12.8928 24.5 13.1249V23.6249Z" fill="#1B1B1B"/>
</g>
</svg>
