<svg width="28" height="28" viewBox="0 0 28 28" fill="none" xmlns="http://www.w3.org/2000/svg">
<g id="eye-slash">
<path id="Vector" d="M23.3782 19.6665C26.355 17.01 28 14 28 14C28 14 22.75 4.375 14 4.375C12.3193 4.38079 10.6576 4.73099 9.11749 5.404L10.465 6.75325C11.598 6.34052 12.7942 6.12794 14 6.125C17.71 6.125 20.7882 8.169 23.044 10.4247C24.1296 11.5162 25.1028 12.714 25.949 14C25.8475 14.1522 25.7355 14.3203 25.6077 14.504C25.0215 15.344 24.1552 16.464 23.044 17.5753C22.7552 17.864 22.4542 18.1493 22.1392 18.4258L23.3782 19.6665Z" fill="#1B1B1B"/>
<path id="Vector_2" d="M19.7698 16.0579C20.1603 14.9656 20.2326 13.7849 19.9783 12.6531C19.724 11.5214 19.1536 10.4851 18.3333 9.66482C17.5131 8.84459 16.4768 8.27413 15.345 8.01984C14.2133 7.76555 13.0325 7.83787 11.9403 8.22839L13.3805 9.66864C14.0531 9.57238 14.7388 9.63407 15.3833 9.84882C16.0279 10.0636 16.6136 10.4255 17.094 10.9059C17.5744 11.3863 17.9363 11.972 18.1511 12.6166C18.3658 13.2611 18.4275 13.9468 18.3313 14.6194L19.7698 16.0579ZM14.6195 18.3311L16.058 19.7696C14.9657 20.1602 13.785 20.2325 12.6532 19.9782C11.5215 19.7239 10.4852 19.1534 9.66494 18.3332C8.84471 17.513 8.27426 16.4767 8.01996 15.3449C7.76567 14.2131 7.83799 13.0324 8.22851 11.9401L9.66876 13.3804C9.5725 14.0529 9.63419 14.7387 9.84895 15.3832C10.0637 16.0278 10.4256 16.6135 10.906 17.0939C11.3864 17.5743 11.9721 17.9362 12.6167 18.151C13.2612 18.3657 13.947 18.4274 14.6195 18.3311V18.3311Z" fill="#1B1B1B"/>
<path id="Vector_3" d="M5.8625 9.57262C5.5475 9.85262 5.24475 10.1361 4.956 10.4249C3.87038 11.5163 2.89716 12.7141 2.051 14.0001L2.39225 14.5041C2.9785 15.3441 3.84475 16.4641 4.956 17.5754C7.21175 19.8311 10.2917 21.8751 14 21.8751C15.253 21.8751 16.4325 21.6424 17.535 21.2451L18.8825 22.5961C17.3424 23.2691 15.6807 23.6193 14 23.6251C5.25 23.6251 0 14.0001 0 14.0001C0 14.0001 1.64325 10.9884 4.62175 8.33362L5.86075 9.57437L5.8625 9.57262ZM23.8805 25.1196L2.8805 4.11962L4.1195 2.88062L25.1195 23.8806L23.8805 25.1196Z" fill="#1B1B1B"/>
</g>
</svg>
