<svg width="28" height="28" viewBox="0 0 28 28" fill="none" xmlns="http://www.w3.org/2000/svg">
<path d="M9.625 6.125C10.3212 6.125 10.9889 6.40156 11.4812 6.89384C11.9734 7.38613 12.25 8.05381 12.25 8.75V19.25C12.25 19.9462 11.9734 20.6139 11.4812 21.1062C10.9889 21.5984 10.3212 21.875 9.625 21.875C8.92881 21.875 8.26113 21.5984 7.76884 21.1062C7.27656 20.6139 7 19.9462 7 19.25V8.75C7 8.05381 7.27656 7.38613 7.76884 6.89384C8.26113 6.40156 8.92881 6.125 9.625 6.125V6.125ZM18.375 6.125C19.0712 6.125 19.7389 6.40156 20.2312 6.89384C20.7234 7.38613 21 8.05381 21 8.75V19.25C21 19.9462 20.7234 20.6139 20.2312 21.1062C19.7389 21.5984 19.0712 21.875 18.375 21.875C17.6788 21.875 17.0111 21.5984 16.5188 21.1062C16.0266 20.6139 15.75 19.9462 15.75 19.25V8.75C15.75 8.05381 16.0266 7.38613 16.5188 6.89384C17.0111 6.40156 17.6788 6.125 18.375 6.125Z" fill="#1B1B1B"/>
</svg>
