<svg width="28" height="28" viewBox="0 0 28 28" fill="none" xmlns="http://www.w3.org/2000/svg">
<path d="M14 14C15.5913 14 17.1174 13.3679 18.2426 12.2426C19.3679 11.1174 20 9.5913 20 8C20 6.4087 19.3679 4.88258 18.2426 3.75736C17.1174 2.63214 15.5913 2 14 2C12.4087 2 10.8826 2.63214 9.75736 3.75736C8.63214 4.88258 8 6.4087 8 8C8 9.5913 8.63214 11.1174 9.75736 12.2426C10.8826 13.3679 12.4087 14 14 14ZM18 8C18 9.06087 17.5786 10.0783 16.8284 10.8284C16.0783 11.5786 15.0609 12 14 12C12.9391 12 11.9217 11.5786 11.1716 10.8284C10.4214 10.0783 10 9.06087 10 8C10 6.93913 10.4214 5.92172 11.1716 5.17157C11.9217 4.42143 12.9391 4 14 4C15.0609 4 16.0783 4.42143 16.8284 5.17157C17.5786 5.92172 18 6.93913 18 8ZM26 24C26 26 24 26 24 26H4C4 26 2 26 2 24C2 22 4 16 14 16C24 16 26 22 26 24ZM24 23.992C23.998 23.5 23.692 22.02 22.336 20.664C21.032 19.36 18.578 18 14 18C9.42 18 6.968 19.36 5.664 20.664C4.308 22.02 4.004 23.5 4 23.992H24Z" fill="#1B1B1B"/>
</svg>
