<svg width="28" height="28" viewBox="0 0 28 28" fill="none" xmlns="http://www.w3.org/2000/svg">
<path d="M19.6137 17.5148C21.0661 15.5326 21.7166 13.0751 21.4351 10.6338C21.1536 8.19257 19.9608 5.94764 18.0954 4.34816C16.23 2.74868 13.8295 1.91262 11.3742 2.00724C8.91897 2.10186 6.58995 3.12018 4.85314 4.85848C3.11633 6.59677 2.09982 8.92685 2.00697 11.3825C1.91412 13.8382 2.75178 16.2384 4.35237 18.1029C5.95296 19.9675 8.19843 21.1588 10.6396 21.4386C13.0807 21.7184 15.5374 21.066 17.5183 19.612H17.5168C17.5618 19.672 17.6098 19.729 17.6638 19.7846L23.4385 25.5602C23.7198 25.8416 24.1013 25.9999 24.4992 26C24.8971 26.0001 25.2788 25.8422 25.5602 25.5609C25.8417 25.2796 25.9999 24.898 26 24.5001C26.0001 24.1021 25.8422 23.7204 25.561 23.4389L19.7862 17.6633C19.7326 17.609 19.6749 17.5589 19.6137 17.5133V17.5148ZM20.0007 11.7482C20.0007 12.8317 19.7873 13.9047 19.3727 14.9057C18.9581 15.9067 18.3504 16.8163 17.5844 17.5825C16.8183 18.3486 15.9089 18.9564 14.908 19.371C13.9071 19.7857 12.8343 19.9991 11.751 19.9991C10.6676 19.9991 9.59486 19.7857 8.59396 19.371C7.59306 18.9564 6.68362 18.3486 5.91757 17.5825C5.15151 16.8163 4.54385 15.9067 4.12926 14.9057C3.71468 13.9047 3.50129 12.8317 3.50129 11.7482C3.50129 9.55997 4.37045 7.46133 5.91757 5.91399C7.46469 4.36666 9.56303 3.49738 11.751 3.49738C13.9389 3.49738 16.0373 4.36666 17.5844 5.91399C19.1315 7.46133 20.0007 9.55997 20.0007 11.7482Z" fill="#1B1B1B"/>
</svg>
