<svg width="28" height="28" viewBox="0 0 28 28" fill="none" xmlns="http://www.w3.org/2000/svg">
<g id="arrow-up-left">
<path id="Vector" fill-rule="evenodd" clip-rule="evenodd" d="M3.5 4.375C3.5 4.14294 3.59219 3.92038 3.75628 3.75628C3.92038 3.59219 4.14294 3.5 4.375 3.5H14.875C15.1071 3.5 15.3296 3.59219 15.4937 3.75628C15.6578 3.92038 15.75 4.14294 15.75 4.375C15.75 4.60706 15.6578 4.82962 15.4937 4.99372C15.3296 5.15781 15.1071 5.25 14.875 5.25H6.48725L24.2445 23.0055C24.4088 23.1698 24.5011 23.3926 24.5011 23.625C24.5011 23.8574 24.4088 24.0802 24.2445 24.2445C24.0802 24.4088 23.8574 24.5011 23.625 24.5011C23.3926 24.5011 23.1698 24.4088 23.0055 24.2445L5.25 6.48725V14.875C5.25 15.1071 5.15781 15.3296 4.99372 15.4937C4.82962 15.6578 4.60706 15.75 4.375 15.75C4.14294 15.75 3.92038 15.6578 3.75628 15.4937C3.59219 15.3296 3.5 15.1071 3.5 14.875V4.375Z" fill="#1B1B1B"/>
</g>
</svg>
