<svg width="28" height="28" viewBox="0 0 28 28" fill="none" xmlns="http://www.w3.org/2000/svg">
<g id="arrow-up-right">
<path id="Vector" fill-rule="evenodd" clip-rule="evenodd" d="M24.5 4.375C24.5 4.14294 24.4078 3.92038 24.2437 3.75628C24.0796 3.59219 23.8571 3.5 23.625 3.5H13.125C12.8929 3.5 12.6704 3.59219 12.5063 3.75628C12.3422 3.92038 12.25 4.14294 12.25 4.375C12.25 4.60706 12.3422 4.82962 12.5063 4.99372C12.6704 5.15781 12.8929 5.25 13.125 5.25H21.5128L3.75551 23.0055C3.67415 23.0869 3.60962 23.1834 3.56559 23.2897C3.52156 23.396 3.4989 23.5099 3.4989 23.625C3.4989 23.7401 3.52156 23.854 3.56559 23.9603C3.60962 24.0666 3.67415 24.1631 3.75551 24.2445C3.83686 24.3259 3.93344 24.3904 4.03974 24.4344C4.14603 24.4784 4.25995 24.5011 4.37501 24.5011C4.49006 24.5011 4.60398 24.4784 4.71028 24.4344C4.81657 24.3904 4.91315 24.3259 4.99451 24.2445L22.75 6.48725V14.875C22.75 15.1071 22.8422 15.3296 23.0063 15.4937C23.1704 15.6578 23.3929 15.75 23.625 15.75C23.8571 15.75 24.0796 15.6578 24.2437 15.4937C24.4078 15.3296 24.5 15.1071 24.5 14.875V4.375Z" fill="#1B1B1B"/>
</g>
</svg>
