<svg width="28" height="28" viewBox="0 0 28 28" fill="none" xmlns="http://www.w3.org/2000/svg">
<g id="arrow-down-short">
<path id="Vector" fill-rule="evenodd" clip-rule="evenodd" d="M14 7C14.2321 7 14.4546 7.09219 14.6187 7.25628C14.7828 7.42038 14.875 7.64294 14.875 7.875V18.0128L18.6305 14.2555C18.7119 14.1741 18.8084 14.1096 18.9147 14.0656C19.021 14.0216 19.135 13.9989 19.25 13.9989C19.3651 13.9989 19.479 14.0216 19.5853 14.0656C19.6916 14.1096 19.7882 14.1741 19.8695 14.2555C19.9509 14.3369 20.0154 14.4334 20.0594 14.5397C20.1035 14.646 20.1261 14.7599 20.1261 14.875C20.1261 14.9901 20.1035 15.104 20.0594 15.2103C20.0154 15.3166 19.9509 15.4131 19.8695 15.4945L14.6195 20.7445C14.5382 20.826 14.4417 20.8906 14.3354 20.9347C14.2291 20.9789 14.1151 21.0016 14 21.0016C13.8849 21.0016 13.771 20.9789 13.6646 20.9347C13.5583 20.8906 13.4618 20.826 13.3805 20.7445L8.13051 15.4945C8.04915 15.4131 7.98462 15.3166 7.94059 15.2103C7.89656 15.104 7.8739 14.9901 7.8739 14.875C7.8739 14.7599 7.89656 14.646 7.94059 14.5397C7.98462 14.4334 8.04915 14.3369 8.13051 14.2555C8.29481 14.0912 8.51765 13.9989 8.75001 13.9989C8.86506 13.9989 8.97898 14.0216 9.08528 14.0656C9.19157 14.1096 9.28815 14.1741 9.36951 14.2555L13.125 18.0128V7.875C13.125 7.64294 13.2172 7.42038 13.3813 7.25628C13.5454 7.09219 13.7679 7 14 7V7Z" fill="#1B1B1B"/>
</g>
</svg>
