<svg width="28" height="28" viewBox="0 0 28 28" fill="none" xmlns="http://www.w3.org/2000/svg">
<g id="arrow-down">
<path id="Vector" fill-rule="evenodd" clip-rule="evenodd" d="M14 1.75C14.2321 1.75 14.4546 1.84219 14.6187 2.00628C14.7828 2.17038 14.875 2.39294 14.875 2.625V23.2628L20.3805 17.7555C20.5448 17.5912 20.7676 17.4989 21 17.4989C21.2324 17.4989 21.4552 17.5912 21.6195 17.7555C21.7838 17.9198 21.8761 18.1426 21.8761 18.375C21.8761 18.6074 21.7838 18.8302 21.6195 18.9945L14.6195 25.9945C14.5382 26.076 14.4417 26.1406 14.3354 26.1847C14.2291 26.2289 14.1151 26.2516 14 26.2516C13.8849 26.2516 13.771 26.2289 13.6646 26.1847C13.5583 26.1406 13.4618 26.076 13.3805 25.9945L6.38051 18.9945C6.2162 18.8302 6.1239 18.6074 6.1239 18.375C6.1239 18.1426 6.2162 17.9198 6.38051 17.7555C6.54481 17.5912 6.76765 17.4989 7.00001 17.4989C7.23236 17.4989 7.45521 17.5912 7.61951 17.7555L13.125 23.2628V2.625C13.125 2.39294 13.2172 2.17038 13.3813 2.00628C13.5454 1.84219 13.7679 1.75 14 1.75V1.75Z" fill="#1B1B1B"/>
</g>
</svg>
