<svg width="28" height="28" viewBox="0 0 28 28" fill="none" xmlns="http://www.w3.org/2000/svg">
<g id="arrow-left">
<path id="Vector" fill-rule="evenodd" clip-rule="evenodd" d="M26.25 13.9999C26.25 13.7678 26.1578 13.5453 25.9937 13.3812C25.8296 13.2171 25.607 13.1249 25.375 13.1249H4.73723L10.2445 7.61938C10.3258 7.53803 10.3904 7.44145 10.4344 7.33516C10.4784 7.22886 10.5011 7.11494 10.5011 6.99988C10.5011 6.88483 10.4784 6.77091 10.4344 6.66461C10.3904 6.55832 10.3258 6.46174 10.2445 6.38038C10.1631 6.29903 10.0665 6.2345 9.96025 6.19047C9.85395 6.14644 9.74003 6.12378 9.62498 6.12378C9.50993 6.12378 9.396 6.14644 9.28971 6.19047C9.18341 6.2345 9.08683 6.29903 9.00548 6.38038L2.00548 13.3804C1.92399 13.4617 1.85934 13.5582 1.81523 13.6645C1.77112 13.7708 1.74841 13.8848 1.74841 13.9999C1.74841 14.115 1.77112 14.2289 1.81523 14.3352C1.85934 14.4415 1.92399 14.5381 2.00548 14.6194L9.00548 21.6194C9.08683 21.7007 9.18341 21.7653 9.28971 21.8093C9.396 21.8533 9.50993 21.876 9.62498 21.876C9.74003 21.876 9.85395 21.8533 9.96025 21.8093C10.0665 21.7653 10.1631 21.7007 10.2445 21.6194C10.3258 21.538 10.3904 21.4414 10.4344 21.3352C10.4784 21.2289 10.5011 21.1149 10.5011 20.9999C10.5011 20.8848 10.4784 20.7709 10.4344 20.6646C10.3904 20.5583 10.3258 20.4617 10.2445 20.3804L4.73723 14.8749H25.375C25.607 14.8749 25.8296 14.7827 25.9937 14.6186C26.1578 14.4545 26.25 14.2319 26.25 13.9999Z" fill="#1B1B1B"/>
</g>
</svg>
