<svg width="28" height="28" viewBox="0 0 28 28" fill="none" xmlns="http://www.w3.org/2000/svg">
<g id="arrow-up-short">
<path id="Vector" fill-rule="evenodd" clip-rule="evenodd" d="M14 21.0001C14.2321 21.0001 14.4546 20.9079 14.6187 20.7438C14.7828 20.5797 14.875 20.3572 14.875 20.1251V9.98735L18.6305 13.7446C18.7119 13.826 18.8084 13.8905 18.9147 13.9345C19.021 13.9785 19.135 14.0012 19.25 14.0012C19.3651 14.0012 19.479 13.9785 19.5853 13.9345C19.6916 13.8905 19.7882 13.826 19.8695 13.7446C19.9509 13.6632 20.0154 13.5667 20.0594 13.4604C20.1035 13.3541 20.1261 13.2402 20.1261 13.1251C20.1261 13.01 20.1035 12.8961 20.0594 12.7898C20.0154 12.6835 19.9509 12.587 19.8695 12.5056L14.6195 7.2556C14.5382 7.17411 14.4417 7.10946 14.3354 7.06535C14.2291 7.02124 14.1151 6.99854 14 6.99854C13.8849 6.99854 13.771 7.02124 13.6646 7.06535C13.5583 7.10946 13.4618 7.17411 13.3805 7.2556L8.13051 12.5056C7.96621 12.6699 7.8739 12.8927 7.8739 13.1251C7.8739 13.3575 7.96621 13.5803 8.13051 13.7446C8.29481 13.9089 8.51765 14.0012 8.75001 14.0012C8.98236 14.0012 9.20521 13.9089 9.36951 13.7446L13.125 9.98735V20.1251C13.125 20.3572 13.2172 20.5797 13.3813 20.7438C13.5454 20.9079 13.7679 21.0001 14 21.0001Z" fill="#1B1B1B"/>
</g>
</svg>
