<svg width="28" height="28" viewBox="0 0 28 28" fill="none" xmlns="http://www.w3.org/2000/svg">
<path d="M4.6865 20.8145C4.86814 20.9968 5.00733 21.217 5.09415 21.4593C5.18096 21.7016 5.21326 21.96 5.18875 22.2162C5.06576 23.402 4.83258 24.5737 4.49225 25.7162C6.9335 25.151 8.4245 24.4965 9.10175 24.1535C9.48588 23.9589 9.92826 23.9128 10.3442 24.024C11.5368 24.3419 12.7658 24.502 14 24.5C20.993 24.5 26.25 19.5878 26.25 14C26.25 8.414 20.993 3.5 14 3.5C7.007 3.5 1.75 8.414 1.75 14C1.75 16.569 2.82975 18.9525 4.6865 20.8145ZM3.82375 27.6482C3.40912 27.7304 2.99315 27.8057 2.576 27.874C2.226 27.93 1.96 27.566 2.09825 27.2405C2.25364 26.874 2.39606 26.5022 2.52525 26.1257L2.5305 26.1082C2.9645 24.8482 3.318 23.3993 3.4475 22.05C1.30025 19.8975 0 17.08 0 14C0 7.2345 6.2685 1.75 14 1.75C21.7315 1.75 28 7.2345 28 14C28 20.7655 21.7315 26.25 14 26.25C12.6134 26.2519 11.2325 26.0718 9.89275 25.7145C8.98275 26.1748 7.0245 27.013 3.82375 27.6482V27.6482Z" fill="#161616"/>
</svg>
