<svg width="28" height="28" viewBox="0 0 28 28" fill="none" xmlns="http://www.w3.org/2000/svg">
<g id="chevron-right">
<path id="Vector" fill-rule="evenodd" clip-rule="evenodd" d="M8.13048 2.8806C8.21176 2.79911 8.30831 2.73446 8.41462 2.69035C8.52092 2.64624 8.63488 2.62354 8.74998 2.62354C8.86507 2.62354 8.97903 2.64624 9.08534 2.69035C9.19164 2.73446 9.2882 2.79911 9.36948 2.8806L19.8695 13.3806C19.951 13.4619 20.0156 13.5584 20.0597 13.6647C20.1038 13.771 20.1265 13.885 20.1265 14.0001C20.1265 14.1152 20.1038 14.2292 20.0597 14.3355C20.0156 14.4418 19.951 14.5383 19.8695 14.6196L9.36948 25.1196C9.20518 25.2839 8.98233 25.3762 8.74998 25.3762C8.51762 25.3762 8.29478 25.2839 8.13048 25.1196C7.96618 24.9553 7.87387 24.7325 7.87387 24.5001C7.87387 24.2677 7.96618 24.0449 8.13048 23.8806L18.0127 14.0001L8.13048 4.1196C8.04899 4.03832 7.98434 3.94176 7.94023 3.83546C7.89612 3.72915 7.87341 3.61519 7.87341 3.5001C7.87341 3.38501 7.89612 3.27104 7.94023 3.16474C7.98434 3.05844 8.04899 2.96188 8.13048 2.8806V2.8806Z" fill="#1B1B1B"/>
</g>
</svg>
