<svg width="28" height="28" viewBox="0 0 28 28" fill="none" xmlns="http://www.w3.org/2000/svg">
<g id="chevron-up">
<path id="Vector" fill-rule="evenodd" clip-rule="evenodd" d="M13.3805 8.1306C13.4618 8.04911 13.5583 7.98446 13.6646 7.94035C13.771 7.89624 13.8849 7.87354 14 7.87354C14.1151 7.87354 14.2291 7.89624 14.3354 7.94035C14.4417 7.98446 14.5382 8.04911 14.6195 8.1306L25.1195 18.6306C25.2838 18.7949 25.3761 19.0177 25.3761 19.2501C25.3761 19.4825 25.2838 19.7053 25.1195 19.8696C24.9552 20.0339 24.7324 20.1262 24.5 20.1262C24.2676 20.1262 24.0448 20.0339 23.8805 19.8696L14 9.98735L4.11951 19.8696C3.95521 20.0339 3.73236 20.1262 3.50001 20.1262C3.26765 20.1262 3.04481 20.0339 2.88051 19.8696C2.71621 19.7053 2.6239 19.4825 2.6239 19.2501C2.6239 19.0177 2.71621 18.7949 2.88051 18.6306L13.3805 8.1306V8.1306Z" fill="#1B1B1B"/>
</g>
</svg>
