<svg width="28" height="28" viewBox="0 0 28 28" fill="none" xmlns="http://www.w3.org/2000/svg">
<g id="chevron-down">
<path id="Vector" fill-rule="evenodd" clip-rule="evenodd" d="M2.88048 8.1306C2.96176 8.04911 3.05831 7.98446 3.16462 7.94035C3.27092 7.89624 3.38488 7.87354 3.49998 7.87354C3.61507 7.87354 3.72903 7.89624 3.83534 7.94035C3.94164 7.98446 4.0382 8.04911 4.11948 8.1306L14 18.0129L23.8805 8.1306C23.9618 8.04924 24.0584 7.98471 24.1647 7.94068C24.271 7.89665 24.3849 7.87399 24.5 7.87399C24.615 7.87399 24.729 7.89665 24.8352 7.94068C24.9415 7.98471 25.0381 8.04924 25.1195 8.1306C25.2008 8.21195 25.2654 8.30853 25.3094 8.41483C25.3534 8.52112 25.3761 8.63505 25.3761 8.7501C25.3761 8.86515 25.3534 8.97908 25.3094 9.08537C25.2654 9.19166 25.2008 9.28825 25.1195 9.3696L14.6195 19.8696C14.5382 19.9511 14.4416 20.0157 14.3353 20.0598C14.229 20.104 14.1151 20.1267 14 20.1267C13.8849 20.1267 13.7709 20.104 13.6646 20.0598C13.5583 20.0157 13.4618 19.9511 13.3805 19.8696L2.88048 9.3696C2.79899 9.28832 2.73434 9.19176 2.69023 9.08546C2.64612 8.97915 2.62341 8.86519 2.62341 8.7501C2.62341 8.63501 2.64612 8.52104 2.69023 8.41474C2.73434 8.30844 2.79899 8.21188 2.88048 8.1306V8.1306Z" fill="#1B1B1B"/>
</g>
</svg>
