<svg width="28" height="28" viewBox="0 0 28 28" fill="none" xmlns="http://www.w3.org/2000/svg">
<g id="chevron-left">
<path id="Vector" fill-rule="evenodd" clip-rule="evenodd" d="M19.8695 2.8806C19.951 2.96188 20.0156 3.05844 20.0597 3.16474C20.1038 3.27104 20.1265 3.38501 20.1265 3.5001C20.1265 3.61519 20.1038 3.72915 20.0597 3.83546C20.0156 3.94176 19.951 4.03832 19.8695 4.1196L9.98723 14.0001L19.8695 23.8806C20.0338 24.0449 20.1261 24.2677 20.1261 24.5001C20.1261 24.7325 20.0338 24.9553 19.8695 25.1196C19.7052 25.2839 19.4823 25.3762 19.25 25.3762C19.0176 25.3762 18.7948 25.2839 18.6305 25.1196L8.13048 14.6196C8.04899 14.5383 7.98434 14.4418 7.94023 14.3355C7.89612 14.2292 7.87341 14.1152 7.87341 14.0001C7.87341 13.885 7.89612 13.771 7.94023 13.6647C7.98434 13.5584 8.04899 13.4619 8.13048 13.3806L18.6305 2.8806C18.7118 2.79911 18.8083 2.73446 18.9146 2.69035C19.0209 2.64624 19.1349 2.62354 19.25 2.62354C19.3651 2.62354 19.479 2.64624 19.5853 2.69035C19.6916 2.73446 19.7882 2.79911 19.8695 2.8806V2.8806Z" fill="#1B1B1B"/>
</g>
</svg>
