<svg width="28" height="28" viewBox="0 0 28 28" fill="none" xmlns="http://www.w3.org/2000/svg">
<path d="M14.0003 6.39686L12.8352 5.21767C10.1002 2.44968 5.0853 3.40487 3.27499 6.88486C2.42509 8.52166 2.23333 10.8848 3.78526 13.9008C5.2803 16.8048 8.39065 20.2832 14.0003 24.072C19.61 20.2832 22.7187 16.8048 24.2154 13.9008C25.7673 10.8832 25.5772 8.52166 24.7256 6.88486C22.9153 3.40487 17.9004 2.44808 15.1655 5.21607L14.0003 6.39686ZM14.0003 26C-10.9166 9.78885 6.32846 -2.86391 13.7143 3.82887C13.8118 3.91687 13.9077 4.00807 14.0003 4.10247C14.092 4.00816 14.1874 3.91742 14.2863 3.83047C21.6706 -2.86711 38.9172 9.78725 14.0003 26Z" fill="#1B1B1B"/>
</svg>
