<svg width="28" height="28" viewBox="0 0 28 28" fill="none" xmlns="http://www.w3.org/2000/svg">
<path d="M14.6195 2.0056C14.5382 1.92411 14.4417 1.85946 14.3354 1.81535C14.2291 1.77124 14.1151 1.74854 14 1.74854C13.8849 1.74854 13.7709 1.77124 13.6646 1.81535C13.5583 1.85946 13.4618 1.92411 13.3805 2.0056L2.8805 12.5056C2.7993 12.587 2.73494 12.6836 2.6911 12.7899C2.64726 12.8962 2.6248 13.0101 2.625 13.1251V25.3751C2.625 25.6072 2.71719 25.8297 2.88128 25.9938C3.04538 26.1579 3.26794 26.2501 3.5 26.2501H11.375C11.6071 26.2501 11.8296 26.1579 11.9937 25.9938C12.1578 25.8297 12.25 25.6072 12.25 25.3751V18.3751H15.75V25.3751C15.75 25.6072 15.8422 25.8297 16.0063 25.9938C16.1704 26.1579 16.3929 26.2501 16.625 26.2501H24.5C24.7321 26.2501 24.9546 26.1579 25.1187 25.9938C25.2828 25.8297 25.375 25.6072 25.375 25.3751V13.1251C25.3752 13.0101 25.3527 12.8962 25.3089 12.7899C25.2651 12.6836 25.2007 12.587 25.1195 12.5056L22.75 10.1378V4.3751C22.75 4.14303 22.6578 3.92048 22.4937 3.75638C22.3296 3.59229 22.1071 3.5001 21.875 3.5001H20.125C19.8929 3.5001 19.6704 3.59229 19.5063 3.75638C19.3422 3.92048 19.25 4.14303 19.25 4.3751V6.63785L14.6195 2.0056ZM4.375 24.5001V13.4873L14 3.86235L23.625 13.4873V24.5001H17.5V17.5001C17.5 17.268 17.4078 17.0455 17.2437 16.8814C17.0796 16.7173 16.8571 16.6251 16.625 16.6251H11.375C11.1429 16.6251 10.9204 16.7173 10.7563 16.8814C10.5922 17.0455 10.5 17.268 10.5 17.5001V24.5001H4.375Z" fill="#1B1B1B"/>
</svg>
