<svg width="28" height="28" viewBox="0 0 28 28" fill="none" xmlns="http://www.w3.org/2000/svg">
<path d="M4 26C4 26 2 26 2 24C2 22 4 16 14 16C24 16 26 22 26 24C26 26 24 26 24 26H4ZM14 14C15.5913 14 17.1174 13.3679 18.2426 12.2426C19.3679 11.1174 20 9.5913 20 8C20 6.4087 19.3679 4.88258 18.2426 3.75736C17.1174 2.63214 15.5913 2 14 2C12.4087 2 10.8826 2.63214 9.75736 3.75736C8.63214 4.88258 8 6.4087 8 8C8 9.5913 8.63214 11.1174 9.75736 12.2426C10.8826 13.3679 12.4087 14 14 14Z" fill="#1B1B1B"/>
</svg>
