<svg width="28" height="28" viewBox="0 0 28 28" fill="none" xmlns="http://www.w3.org/2000/svg">
<g clip-path="url(#clip0_183_214)">
<path d="M27.7444 0.255518C27.8656 0.376849 27.9484 0.531098 27.9826 0.699103C28.0169 0.867109 28.001 1.04147 27.9369 1.20052L17.7537 26.6578C17.664 26.882 17.5141 27.077 17.3206 27.2216C17.1272 27.3661 16.8976 27.4544 16.6571 27.4768C16.4167 27.4993 16.1747 27.4549 15.9578 27.3487C15.741 27.2425 15.5576 27.0785 15.4279 26.8748L9.86644 18.1335L1.12519 12.572C0.920998 12.4425 0.756557 12.2591 0.650014 12.042C0.543471 11.8249 0.498968 11.5826 0.521415 11.3419C0.543863 11.1011 0.632388 10.8712 0.777223 10.6776C0.922058 10.4839 1.11757 10.3341 1.34219 10.2445L26.7994 0.0647679C26.9585 0.000739407 27.1329 -0.0151501 27.3009 0.0190732C27.4689 0.0532965 27.6231 0.136124 27.7444 0.257268V0.255518ZM11.6129 17.6225L16.4447 25.214L24.7274 4.50802L11.6129 17.6225ZM23.4902 3.27077L2.78419 11.5535L10.3774 16.3835L23.4919 3.27077H23.4902Z" fill="#161616"/>
</g>
<defs>
<clipPath id="clip0_183_214">
<rect width="28" height="28" fill="white"/>
</clipPath>
</defs>
</svg>
