<svg width="28" height="28" viewBox="0 0 28 28" fill="none" xmlns="http://www.w3.org/2000/svg">
<g id="x-lg">
<path id="Vector" d="M3.75551 4.99438C3.67415 4.91303 3.60962 4.81645 3.56559 4.71016C3.52156 4.60386 3.4989 4.48994 3.4989 4.37488C3.4989 4.25983 3.52156 4.14591 3.56559 4.03961C3.60962 3.93332 3.67415 3.83674 3.75551 3.75538C3.83686 3.67403 3.93344 3.6095 4.03974 3.56547C4.14603 3.52144 4.25995 3.49878 4.37501 3.49878C4.49006 3.49878 4.60398 3.52144 4.71028 3.56547C4.81657 3.6095 4.91315 3.67403 4.99451 3.75538L14 12.7626L23.0055 3.75538C23.0869 3.67403 23.1834 3.6095 23.2897 3.56547C23.396 3.52144 23.51 3.49878 23.625 3.49878C23.7401 3.49878 23.854 3.52144 23.9603 3.56547C24.0666 3.6095 24.1632 3.67403 24.2445 3.75538C24.3259 3.83674 24.3904 3.93332 24.4344 4.03961C24.4784 4.14591 24.5011 4.25983 24.5011 4.37488C24.5011 4.48994 24.4784 4.60386 24.4344 4.71016C24.3904 4.81645 24.3259 4.91303 24.2445 4.99438L15.2373 13.9999L24.2445 23.0054C24.3259 23.0867 24.3904 23.1833 24.4344 23.2896C24.4784 23.3959 24.5011 23.5098 24.5011 23.6249C24.5011 23.7399 24.4784 23.8539 24.4344 23.9602C24.3904 24.0664 24.3259 24.163 24.2445 24.2444C24.1632 24.3257 24.0666 24.3903 23.9603 24.4343C23.854 24.4783 23.7401 24.501 23.625 24.501C23.51 24.501 23.396 24.4783 23.2897 24.4343C23.1834 24.3903 23.0869 24.3257 23.0055 24.2444L14 15.2371L4.99451 24.2444C4.91315 24.3257 4.81657 24.3903 4.71028 24.4343C4.60398 24.4783 4.49006 24.501 4.37501 24.501C4.25995 24.501 4.14603 24.4783 4.03974 24.4343C3.93344 24.3903 3.83686 24.3257 3.75551 24.2444C3.67415 24.163 3.60962 24.0664 3.56559 23.9602C3.52156 23.8539 3.4989 23.7399 3.4989 23.6249C3.4989 23.5098 3.52156 23.3959 3.56559 23.2896C3.60962 23.1833 3.67415 23.0867 3.75551 23.0054L12.7628 13.9999L3.75551 4.99438Z" fill="#1B1B1B"/>
</g>
</svg>
