<svg width="28" height="28" viewBox="0 0 28 28" fill="none" xmlns="http://www.w3.org/2000/svg">
<g id="x">
<path id="Vector" d="M8.13051 8.1306C8.21179 8.04911 8.30834 7.98446 8.41465 7.94035C8.52095 7.89624 8.63491 7.87354 8.75001 7.87354C8.8651 7.87354 8.97906 7.89624 9.08537 7.94035C9.19167 7.98446 9.28823 8.04911 9.36951 8.1306L14 12.7628L18.6305 8.1306C18.7119 8.04924 18.8084 7.98471 18.9147 7.94068C19.021 7.89665 19.135 7.87399 19.25 7.87399C19.3651 7.87399 19.479 7.89665 19.5853 7.94068C19.6916 7.98471 19.7882 8.04924 19.8695 8.1306C19.9509 8.21195 20.0154 8.30853 20.0594 8.41483C20.1035 8.52112 20.1261 8.63505 20.1261 8.7501C20.1261 8.86515 20.1035 8.97908 20.0594 9.08537C20.0154 9.19166 19.9509 9.28825 19.8695 9.3696L15.2373 14.0001L19.8695 18.6306C19.9509 18.712 20.0154 18.8085 20.0594 18.9148C20.1035 19.0211 20.1261 19.135 20.1261 19.2501C20.1261 19.3652 20.1035 19.4791 20.0594 19.5854C20.0154 19.6917 19.9509 19.7882 19.8695 19.8696C19.7882 19.951 19.6916 20.0155 19.5853 20.0595C19.479 20.1035 19.3651 20.1262 19.25 20.1262C19.135 20.1262 19.021 20.1035 18.9147 20.0595C18.8084 20.0155 18.7119 19.951 18.6305 19.8696L14 15.2373L9.36951 19.8696C9.28815 19.951 9.19157 20.0155 9.08528 20.0595C8.97898 20.1035 8.86506 20.1262 8.75001 20.1262C8.63496 20.1262 8.52103 20.1035 8.41474 20.0595C8.30844 20.0155 8.21186 19.951 8.13051 19.8696C8.04915 19.7882 7.98462 19.6917 7.94059 19.5854C7.89656 19.4791 7.8739 19.3652 7.8739 19.2501C7.8739 19.135 7.89656 19.0211 7.94059 18.9148C7.98462 18.8085 8.04915 18.712 8.13051 18.6306L12.7628 14.0001L8.13051 9.3696C8.04902 9.28832 7.98437 9.19176 7.94026 9.08546C7.89615 8.97915 7.87344 8.86519 7.87344 8.7501C7.87344 8.63501 7.89615 8.52104 7.94026 8.41474C7.98437 8.30844 8.04902 8.21188 8.13051 8.1306Z" fill="#1B1B1B"/>
</g>
</svg>
