<svg width="198" height="128" viewBox="0 0 198 128" fill="none" xmlns="http://www.w3.org/2000/svg">
<path d="M82.5 2C82.5 0.895431 83.3954 0 84.5 0H113.5C114.605 0 115.5 0.895428 115.5 2V49.224C115.5 52.7823 119.798 54.5694 122.321 52.0601L155.926 18.6376C156.706 17.8617 157.967 17.8617 158.747 18.6376L179.245 39.0245C180.031 39.8064 180.031 41.0787 179.245 41.8606L145.708 75.2152C143.178 77.7318 144.96 82.0513 148.529 82.0513H196C197.105 82.0513 198 82.9467 198 84.0513V112.872C198 113.976 197.105 114.872 196 114.872H130.47C124.025 114.872 118.8 120.096 118.8 126.541C118.8 127.347 118.147 128 117.341 128H80.6587C79.8531 128 79.2 127.347 79.2 126.541C79.2 120.096 73.9754 114.872 67.5305 114.872H2C0.895431 114.872 0 113.976 0 112.872V84.0513C0 82.9467 0.895431 82.0513 2 82.0513H49.4712C53.0401 82.0513 54.8224 77.7318 52.2919 75.2151L18.7549 41.8606C17.9688 41.0787 17.9688 39.8064 18.7549 39.0244L39.2533 18.6376C40.0335 17.8617 41.2938 17.8617 42.074 18.6376L75.6793 52.0601C78.2023 54.5694 82.5 52.7823 82.5 49.224V2Z" fill="black"/>
</svg>
